<svg width="217" height="42" fill="none" xmlns="http://www.w3.org/2000/svg"><path fill-rule="evenodd" clip-rule="evenodd" d="M126.806 12.037c-.537.49-1.248.734-2.131.734-.883 0-1.593-.245-2.131-.734a2.37 2.37 0 0 1-.806-1.829c0-.749.268-1.368.806-1.858s1.248-.734 2.131-.734c.883 0 1.594.245 2.131.734.538.49.807 1.11.807 1.858 0 .73-.269 1.34-.807 1.829ZM63.59 27.027V30.8H52.1V10.438h4.924v16.59h6.566Zm14.07 2.981c-1.258.662-2.684.994-4.278.994-1.593 0-3.024-.332-4.29-.994a7.262 7.262 0 0 1-2.982-2.866c-.72-1.248-1.08-2.707-1.08-4.377s.36-3.13 1.08-4.378a7.262 7.262 0 0 1 2.981-2.865c1.267-.663 2.698-.994 4.291-.994 1.594 0 3.02.331 4.277.994a7.284 7.284 0 0 1 2.967 2.865c.72 1.248 1.08 2.707 1.08 4.378 0 1.67-.36 3.13-1.08 4.377a7.284 7.284 0 0 1-2.967 2.866Zm-4.278-3.298c-.94 0-1.732-.336-2.376-1.008-.643-.672-.964-1.65-.964-2.937s.321-2.27.964-2.952c.644-.682 1.436-1.023 2.376-1.023.941 0 1.728.341 2.362 1.023.634.681.95 1.665.95 2.952 0 1.286-.316 2.265-.95 2.937-.634.672-1.42 1.008-2.362 1.008Zm23.501 10.916c-1.19.71-2.669 1.065-4.435 1.065-2.42 0-4.354-.571-5.803-1.713-1.45-1.143-2.319-2.693-2.607-4.652h4.868a2.44 2.44 0 0 0 1.05 1.527c.548.365 1.263.547 2.146.547 1.018 0 1.839-.293 2.463-.878.624-.586.936-1.522.936-2.808V27.89a5.021 5.021 0 0 1-1.959 2.275c-.883.557-1.939.836-3.168.836-1.324 0-2.51-.332-3.556-.994-1.047-.662-1.872-1.618-2.477-2.866-.605-1.248-.907-2.707-.907-4.377 0-1.69.302-3.154.907-4.392.605-1.239 1.43-2.189 2.477-2.851 1.046-.663 2.232-.994 3.556-.994 1.23 0 2.285.278 3.168.835a5.021 5.021 0 0 1 1.959 2.275V14.73h4.896v15.984c0 1.497-.288 2.846-.864 4.046-.576 1.2-1.46 2.155-2.65 2.866Zm-4.925-10.944c-1.056 0-1.905-.346-2.548-1.037-.644-.691-.965-1.651-.965-2.88 0-1.229.321-2.189.965-2.88.643-.691 1.492-1.037 2.548-1.037 1.037 0 1.887.35 2.55 1.051.662.701.993 1.656.993 2.866 0 1.19-.331 2.14-.994 2.851-.662.71-1.512 1.066-2.549 1.066Zm23.631 3.326c-1.258.662-2.683.994-4.277.994-1.594 0-3.024-.332-4.291-.994a7.263 7.263 0 0 1-2.981-2.866c-.72-1.248-1.08-2.707-1.08-4.377s.36-3.13 1.08-4.378a7.263 7.263 0 0 1 2.981-2.865c1.267-.663 2.697-.994 4.291-.994 1.594 0 3.019.331 4.277.994a7.287 7.287 0 0 1 2.966 2.865c.72 1.248 1.08 2.707 1.08 4.378 0 1.67-.36 3.13-1.08 4.377a7.287 7.287 0 0 1-2.966 2.866Zm-4.277-3.298c-.941 0-1.733-.336-2.376-1.008-.643-.672-.965-1.65-.965-2.937s.322-2.27.965-2.952c.643-.682 1.435-1.023 2.376-1.023.941 0 1.728.341 2.362 1.023.633.681.95 1.665.95 2.952 0 1.286-.317 2.265-.95 2.937-.634.672-1.421 1.008-2.362 1.008Zm15.811-11.98h-4.925V30.8h4.925V14.73Zm8.323 13.161v10.57h-4.924V14.73h4.924v2.908a4.856 4.856 0 0 1 1.93-2.275c.883-.557 1.939-.835 3.168-.835 1.325 0 2.51.331 3.557.994 1.046.662 1.872 1.612 2.477 2.85.604 1.24.907 2.703.907 4.393 0 1.67-.303 3.13-.907 4.377-.605 1.248-1.431 2.204-2.477 2.866-1.047.662-2.232.994-3.557.994-1.229 0-2.285-.279-3.168-.836a4.856 4.856 0 0 1-1.93-2.275Zm3.514-1.21c-1.037 0-1.886-.355-2.549-1.065-.662-.71-.993-1.66-.993-2.851 0-1.21.331-2.165.993-2.866.663-.7 1.512-1.051 2.549-1.051 1.056 0 1.906.346 2.549 1.037s.965 1.651.965 2.88c0 1.229-.322 2.189-.965 2.88-.643.691-1.493 1.037-2.549 1.037Zm21.427 3.716c-.941.403-2.054.605-3.341.605-2.169 0-3.907-.48-5.212-1.44-1.306-.96-2.103-2.333-2.391-4.119h4.752c.077.691.37 1.22.879 1.584.508.365 1.166.547 1.972.547.557 0 .98-.13 1.268-.388.288-.26.432-.6.432-1.023 0-.557-.264-.955-.792-1.195-.528-.24-1.388-.494-2.578-.763-1.19-.25-2.17-.519-2.938-.807a4.85 4.85 0 0 1-1.987-1.396c-.557-.644-.835-1.522-.835-2.636 0-1.44.547-2.606 1.642-3.499 1.094-.893 2.64-1.339 4.636-1.339 2.036 0 3.663.509 4.882 1.526 1.219 1.018 1.982 2.362 2.29 4.032h-4.608c-.135-.652-.437-1.166-.908-1.54-.47-.375-1.06-.562-1.771-.562-.557 0-.979.12-1.267.36-.288.24-.432.58-.432 1.022 0 .5.264.874.792 1.124.528.25 1.358.499 2.491.748 1.229.288 2.237.581 3.024.879a4.99 4.99 0 0 1 2.045 1.454c.576.672.864 1.575.864 2.707 0 .922-.25 1.738-.749 2.448s-1.219 1.268-2.16 1.67Zm11.434.576c1.209 0 2.27-.279 3.182-.835a5.334 5.334 0 0 0 2.059-2.247V30.8h4.954V14.73h-4.954v8.524c0 1.172-.288 2.074-.864 2.708-.576.633-1.363.95-2.361.95-.96 0-1.723-.302-2.29-.907-.566-.605-.849-1.455-.849-2.549V14.73h-4.896v9.33c0 2.151.542 3.84 1.627 5.07 1.085 1.228 2.549 1.843 4.392 1.843Zm18.518-8.698V30.8h-4.925V14.73h4.925v2.736a4.802 4.802 0 0 1 1.944-2.132c.874-.518 1.896-.777 3.067-.777 1.229 0 2.314.283 3.255.85.941.566 1.651 1.377 2.131 2.433a6.437 6.437 0 0 1 2.29-2.39 6.017 6.017 0 0 1 3.211-.893c1.977 0 3.533.61 4.665 1.829 1.133 1.219 1.7 2.913 1.7 5.083V30.8h-4.896v-8.755c0-1.018-.274-1.81-.821-2.376-.547-.567-1.291-.85-2.232-.85-.979 0-1.752.303-2.319.907-.566.605-.849 1.455-.849 2.55V30.8h-4.925v-8.755c0-1.018-.269-1.81-.806-2.376-.538-.567-1.277-.85-2.218-.85-.979 0-1.757.298-2.333.893-.576.595-.864 1.45-.864 2.563Z" fill="#D8D8D8"/><circle cx="214.4" cy="12.8" r="2.4" fill="#fff"/><path fill-rule="evenodd" clip-rule="evenodd" d="M27.2 28c7.511 0 13.6-6.268 13.6-14S34.711 0 27.2 0c-7.381 0-13.389 6.053-13.595 13.6H13.6C6.089 13.6 0 19.868 0 27.6s6.089 14 13.6 14c7.381 0 13.389-6.053 13.595-13.6h.005ZM13.6 14c0 7.73 6.086 13.997 13.595 14 .003-.133.005-.266.005-.4 0-7.73-6.086-13.997-13.595-14a14.77 14.77 0 0 0-.005.4Z" fill="#D8D8D8"/></svg>