<svg width="190" height="35" fill="none" xmlns="http://www.w3.org/2000/svg"><path fill-rule="evenodd" clip-rule="evenodd" d="M113.171 5.544v4.09h-4.694v-4.09h4.694ZM53.296 23.342V27H39.645V6.494h4.493v16.848h9.158Zm13.306 2.967c-1.152.614-2.496.921-4.032.921-1.575 0-2.938-.307-4.09-.921a6.408 6.408 0 0 1-2.664-2.635c-.624-1.143-.936-2.492-.936-4.047 0-1.555.312-2.899.936-4.032a6.522 6.522 0 0 1 2.664-2.635c1.152-.624 2.515-.936 4.09-.936 1.536 0 2.88.312 4.032.936a6.522 6.522 0 0 1 2.664 2.635c.624 1.133.936 2.477.936 4.032 0 1.555-.312 2.904-.936 4.047a6.408 6.408 0 0 1-2.664 2.635Zm-4.032-2.39c-1.095 0-1.93-.351-2.506-1.052-.576-.7-.864-1.78-.864-3.24 0-1.44.293-2.51.878-3.211.586-.7 1.416-1.051 2.492-1.051 1.056 0 1.872.35 2.448 1.051.576.7.864 1.771.864 3.211 0 1.46-.288 2.54-.864 3.24-.576.701-1.392 1.051-2.448 1.051Zm23.198 7.718c-1.334 1.21-3.298 1.814-5.89 1.814-2.304 0-4.32-.451-6.048-1.353l.663-3.226c.864.442 1.737.768 2.62.98a11.24 11.24 0 0 0 2.621.316c1.248 0 2.18-.288 2.794-.864l.127-.128c.53-.576.795-1.416.795-2.522l-.001-2.552-.019.03a5.42 5.42 0 0 1-.7.852c-.48.48-1.061.869-1.743 1.166a5.445 5.445 0 0 1-2.203.447c-1.267 0-2.39-.303-3.37-.907-.979-.605-1.747-1.455-2.304-2.55-.556-1.094-.835-2.37-.835-3.83 0-1.459.279-2.73.835-3.816.557-1.084 1.325-1.934 2.304-2.548.98-.615 2.103-.922 3.37-.922 1.19 0 2.242.293 3.154.878l.221.15c.504.36.908.784 1.212 1.271l.078.134v-2.059h4.32v13.91c0 2.343-.667 4.12-2.001 5.329Zm-5.717-8.352c-1.056 0-1.896-.355-2.52-1.066-.624-.71-.936-1.68-.936-2.909 0-1.228.307-2.193.922-2.894.614-.7 1.459-1.051 2.534-1.051 1.075 0 1.91.355 2.506 1.065.595.71.893 1.67.893 2.88 0 1.248-.303 2.223-.908 2.924-.604.7-1.435 1.05-2.49 1.05Zm22.205 3.024c-1.152.614-2.496.921-4.032.921-1.574 0-2.938-.307-4.09-.921a6.408 6.408 0 0 1-2.664-2.635c-.624-1.143-.936-2.492-.936-4.047 0-1.555.312-2.899.936-4.032a6.522 6.522 0 0 1 2.664-2.635c1.152-.624 2.516-.936 4.09-.936 1.536 0 2.88.312 4.032.936a6.522 6.522 0 0 1 2.664 2.635c.624 1.133.936 2.477.936 4.032 0 1.555-.312 2.904-.936 4.047a6.408 6.408 0 0 1-2.664 2.635Zm-4.032-2.39c-1.094 0-1.93-.351-2.506-1.052-.576-.7-.864-1.78-.864-3.24 0-1.44.293-2.51.879-3.211.585-.7 1.416-1.051 2.491-1.051 1.056 0 1.872.35 2.448 1.051.576.7.864 1.771.864 3.211 0 1.46-.288 2.54-.864 3.24-.576.701-1.392 1.051-2.448 1.051ZM112.998 27V12.398h-4.348V27h4.348Zm7.891-2.12.001 8.34h-4.349V16.575c0-.69-.015-1.387-.043-2.088-.029-.7-.092-1.396-.188-2.088h4.09l.276 2.463.046-.113c.337-.76.878-1.38 1.622-1.86.893-.576 1.934-.864 3.125-.864 1.267 0 2.385.322 3.355.965.97.643 1.733 1.545 2.29 2.707.556 1.162.835 2.5.835 4.018 0 1.516-.279 2.841-.835 3.974-.557 1.133-1.32 2.006-2.29 2.62-.97.615-2.088.922-3.355.922-1.191 0-2.232-.278-3.125-.835l-.217-.144a4.06 4.06 0 0 1-1.178-1.264l-.06-.107Zm3.341-.962c-1.094 0-1.929-.364-2.505-1.094-.576-.73-.864-1.786-.864-3.168 0-1.382.288-2.443.864-3.182.576-.74 1.411-1.11 2.505-1.11 1.056 0 1.877.385 2.463 1.153.585.768.878 1.833.878 3.197 0 1.363-.288 2.404-.864 3.124-.576.72-1.401 1.08-2.477 1.08Zm20.693 2.103c-1.104.806-2.625 1.21-4.565 1.21-2.784 0-4.982-.596-6.595-1.786l1.181-3.024a8.869 8.869 0 0 0 2.578 1.281c.95.298 1.905.447 2.865.447.749 0 1.325-.12 1.728-.36s.605-.571.605-.994c0-.365-.144-.648-.432-.85-.288-.201-.797-.388-1.526-.561l-2.391-.576c-1.421-.288-2.462-.768-3.125-1.44-.662-.672-.993-1.565-.993-2.678 0-.903.264-1.704.792-2.405.528-.701 1.262-1.253 2.203-1.656.941-.403 2.035-.605 3.283-.605 1.056 0 2.074.158 3.053.475a9.722 9.722 0 0 1 2.678 1.34l-1.209 2.908a9.449 9.449 0 0 0-2.29-1.18 6.9 6.9 0 0 0-2.261-.404c-.71 0-1.267.125-1.67.375s-.605.595-.605 1.036c0 .327.12.586.36.778.24.192.667.365 1.282.518l2.448.548c1.497.345 2.582.864 3.254 1.555.672.691 1.008 1.613 1.008 2.765 0 1.382-.552 2.476-1.656 3.283Zm9.691 1.21c1.095 0 2.05-.265 2.866-.793a4.646 4.646 0 0 0 1.468-1.54l.015-.027V27h4.234V12.398h-4.378v8.064c0 1.018-.278 1.834-.835 2.448-.557.615-1.277.922-2.16.922-.787 0-1.368-.216-1.742-.648-.375-.432-.562-1.1-.562-2.002v-8.784h-4.349v8.698c0 2.054.451 3.59 1.354 4.608.902 1.018 2.265 1.526 4.089 1.526Zm16.445-8.266V27h-4.349V16.574c0-.69-.014-1.387-.043-2.088-.029-.7-.091-1.396-.187-2.088h4.09l.245 2.215.133-.232a4.76 4.76 0 0 1 1.479-1.536c.835-.547 1.839-.821 3.01-.821 1.325 0 2.376.34 3.153 1.022l.163.152c.37.366.674.82.912 1.36l.08.197.096-.164a5.43 5.43 0 0 1 1.615-1.645c.922-.615 1.968-.922 3.139-.922 1.671 0 2.909.509 3.715 1.526.807 1.018 1.21 2.554 1.21 4.608V27h-4.349v-8.698c0-.998-.163-1.728-.489-2.188-.327-.461-.864-.692-1.613-.692-.864 0-1.546.312-2.045.936-.499.624-.749 1.493-.749 2.607V27h-4.349v-8.698c0-.998-.163-1.728-.489-2.188-.327-.461-.855-.692-1.584-.692-.883 0-1.57.312-2.059.936-.49.624-.735 1.493-.735 2.607Z" fill="#D8D8D8"/><path d="M0 .4v2.4h28V.4H0ZM0 5.2v2.4h28V5.2H0ZM0 10v2.4h28V10H0ZM0 14.8v2.4h28v-2.4H0ZM0 19.6V22h28v-2.4H0ZM0 24.4v2.4h28v-2.4H0ZM0 29.2v2.4h28v-2.4H0Z" fill="#D8D8D8"/></svg>