<svg width="230" height="42" fill="none" xmlns="http://www.w3.org/2000/svg"><path fill-rule="evenodd" clip-rule="evenodd" d="M131.869 13.862c.998 0 1.805-.283 2.419-.85.614-.566.922-1.28.922-2.145 0-.825-.308-1.502-.922-2.03-.614-.528-1.421-.792-2.419-.792-.999 0-1.805.278-2.419.835a2.684 2.684 0 0 0-.922 2.074c0 .825.307 1.516.922 2.073.614.557 1.42.835 2.419.835ZM68.538 31.2v-4.522h-9.62V11.04h-5.702V31.2h15.322Zm9.763.26c1.69 0 3.206-.346 4.55-1.038 1.344-.69 2.39-1.65 3.14-2.88.748-1.228 1.123-2.62 1.123-4.176 0-1.555-.375-2.942-1.124-4.161-.748-1.22-1.795-2.17-3.139-2.851-1.344-.682-2.86-1.023-4.55-1.023s-3.202.341-4.536 1.023c-1.335.681-2.381 1.636-3.14 2.865-.758 1.229-1.137 2.611-1.137 4.147 0 1.556.38 2.948 1.138 4.176.758 1.23 1.81 2.19 3.153 2.88 1.344.692 2.851 1.037 4.522 1.037Zm-2.362-5.343c.615.662 1.402.993 2.362.993.96 0 1.747-.33 2.361-.993.615-.663.922-1.58.922-2.75 0-1.153-.307-2.055-.922-2.708-.614-.653-1.401-.979-2.361-.979-.96 0-1.747.326-2.362.98-.614.652-.921 1.554-.921 2.706 0 1.172.307 2.088.921 2.75Zm21.341 10.93c2.957 0 5.222-.725 6.797-2.175 1.574-1.45 2.361-3.624 2.361-6.523V15.59h-5.212v1.901c-1.037-1.44-2.67-2.16-4.896-2.16-1.383 0-2.66.312-3.83.936a7.127 7.127 0 0 0-2.794 2.65c-.692 1.142-1.037 2.453-1.037 3.931 0 1.498.345 2.818 1.037 3.96a7.127 7.127 0 0 0 2.793 2.65c1.171.624 2.448.936 3.83.936 2.036 0 3.581-.615 4.637-1.844v.519c0 1.248-.336 2.189-1.008 2.822-.672.634-1.728.95-3.168.95-.94 0-1.896-.148-2.865-.446-.97-.297-1.771-.705-2.405-1.224l-1.987 3.83c.94.673 2.083 1.181 3.427 1.527 1.344.346 2.784.518 4.32.518Zm-2.102-11.895c.652.595 1.468.893 2.448.893.979 0 1.79-.298 2.433-.893.643-.595.965-1.363.965-2.304 0-.94-.317-1.704-.95-2.29-.634-.585-1.45-.878-2.448-.878-.999 0-1.82.293-2.463.878-.643.586-.965 1.35-.965 2.29s.327 1.709.98 2.304Zm22.608 6.307c1.689 0 3.206-.345 4.55-1.037 1.344-.69 2.39-1.65 3.139-2.88.749-1.228 1.123-2.62 1.123-4.176 0-1.555-.374-2.942-1.123-4.161-.749-1.22-1.795-2.17-3.139-2.851-1.344-.682-2.861-1.023-4.55-1.023-1.69 0-3.202.341-4.536 1.023-1.335.681-2.381 1.636-3.14 2.865-.758 1.229-1.137 2.611-1.137 4.147 0 1.556.379 2.948 1.137 4.176.759 1.23 1.81 2.19 3.154 2.88 1.344.692 2.851 1.037 4.522 1.037Zm-2.362-5.342c.614.662 1.402.993 2.362.993.96 0 1.747-.33 2.361-.993.615-.663.922-1.58.922-2.75 0-1.153-.307-2.055-.922-2.708-.614-.653-1.401-.979-2.361-.979-.96 0-1.748.326-2.362.98-.614.652-.922 1.554-.922 2.706 0 1.172.308 2.088.922 2.75Zm19.181-10.527V31.2h-5.472V15.59h5.472Zm9.014 21.197v-6.97c1.075 1.095 2.525 1.642 4.349 1.642 1.421 0 2.712-.331 3.874-.993 1.161-.663 2.083-1.604 2.764-2.823.682-1.219 1.023-2.635 1.023-4.248 0-1.613-.341-3.029-1.023-4.248-.681-1.219-1.603-2.16-2.764-2.822-1.162-.663-2.453-.994-3.874-.994-2.054 0-3.59.605-4.608 1.815V15.59h-5.213v21.197h5.472Zm.835-10.67c.615.662 1.402.993 2.362.993.96 0 1.747-.33 2.362-.993.614-.663.921-1.57.921-2.722s-.307-2.059-.921-2.721c-.615-.663-1.402-.994-2.362-.994-.96 0-1.747.331-2.362.994-.614.662-.921 1.57-.921 2.721 0 1.152.307 2.06.921 2.722Zm19.383 5.342c1.632 0 3.029-.22 4.19-.662 1.162-.442 2.04-1.051 2.635-1.829a4.22 4.22 0 0 0 .893-2.635c0-1.19-.312-2.117-.936-2.78a4.884 4.884 0 0 0-2.203-1.367c-.845-.25-1.91-.47-3.197-.663-1.017-.153-1.747-.302-2.189-.446-.441-.144-.662-.399-.662-.763 0-.327.202-.59.605-.792.403-.202 1.037-.303 1.901-.303 1.612 0 3.11.384 4.492 1.152l1.642-3.715c-.749-.422-1.68-.749-2.794-.98a16.577 16.577 0 0 0-3.369-.345c-1.594 0-2.962.226-4.104.677-1.143.451-2.011 1.066-2.607 1.843a4.266 4.266 0 0 0-.892 2.664c0 1.21.316 2.15.95 2.823a4.912 4.912 0 0 0 2.261 1.382c.873.25 1.934.451 3.182.605.979.134 1.695.273 2.146.417.451.144.677.39.677.735s-.188.61-.562.792c-.374.182-1.003.273-1.886.273-.96 0-1.93-.13-2.909-.388-.979-.26-1.824-.61-2.535-1.052l-1.641 3.744c.768.48 1.785.87 3.053 1.167 1.267.297 2.553.446 3.859.446Zm19.209-.49c-.806.327-1.66.49-2.563.49-2.016 0-3.624-.595-4.824-1.785-1.2-1.19-1.8-2.976-1.8-5.357V15.59h5.472v7.834c0 1.171.221 2.026.663 2.563.441.538 1.084.807 1.929.807.864 0 1.57-.303 2.117-.908.547-.604.821-1.53.821-2.779V15.59h5.472V31.2h-5.213v-1.67a5.605 5.605 0 0 1-2.074 1.44Zm16.272.231v-7.747c0-1.171.25-2.045.749-2.621.499-.576 1.171-.864 2.016-.864 1.575 0 2.362 1.066 2.362 3.197V31.2h5.472v-7.747c0-1.171.249-2.045.749-2.621.499-.576 1.161-.864 1.987-.864.749 0 1.329.26 1.742.778.413.518.619 1.324.619 2.419V31.2h5.472v-8.928c0-2.323-.571-4.06-1.713-5.213-1.143-1.152-2.674-1.728-4.594-1.728-1.113 0-2.141.211-3.081.634a6.049 6.049 0 0 0-2.333 1.814 4.994 4.994 0 0 0-2.103-1.843c-.864-.403-1.843-.605-2.937-.605-.941 0-1.81.159-2.607.475a5.493 5.493 0 0 0-2.059 1.426V15.59h-5.213V31.2h5.472Zm29.276-.662c-.624.614-1.407.921-2.348.921-.921 0-1.699-.307-2.332-.921-.634-.615-.951-1.392-.951-2.333 0-.96.312-1.738.936-2.333.624-.595 1.407-.893 2.347-.893.96 0 1.748.298 2.362.893.614.595.922 1.373.922 2.333 0 .94-.312 1.718-.936 2.333ZM20.72 0l20.72 41.44H30.807c-14.154 0-23.36-14.895-17.03-27.555L20.72 0Z" fill="#D8D8D8"/><circle cx="5.88" cy="35.56" r="5.88" fill="#D8D8D8"/></svg>