<svg width="188" height="38" fill="none" xmlns="http://www.w3.org/2000/svg"><path fill-rule="evenodd" clip-rule="evenodd" d="M115.218 12.96c-.331.14-.684.21-1.058.21-.365 0-.706-.07-1.022-.21a2.877 2.877 0 0 1-.843-.56 2.585 2.585 0 0 1-.576-.822 2.432 2.432 0 0 1-.209-1c0-.365.07-.706.209-1.023a2.7 2.7 0 0 1 1.419-1.397 2.585 2.585 0 0 1 1.022-.201 2.786 2.786 0 0 1 1.93.763c.249.24.446.518.59.835.144.317.216.658.216 1.023 0 .355-.072.688-.216 1a2.643 2.643 0 0 1-.59.821 2.89 2.89 0 0 1-.872.562ZM61.571 29.6v-3.888h-7.776V8.619h-4.867V29.6h12.643Zm8.381.23c1.133 0 2.165-.18 3.096-.54a6.823 6.823 0 0 0 2.398-1.54c.667-.668 1.185-1.479 1.555-2.434.37-.955.554-2.028.554-3.218 0-1.181-.185-2.244-.554-3.19-.37-.946-.888-1.75-1.555-2.412a6.79 6.79 0 0 0-2.398-1.526c-.931-.356-1.963-.533-3.096-.533-1.142 0-2.182.177-3.118.533a6.924 6.924 0 0 0-2.419 1.526 6.776 6.776 0 0 0-1.57 2.412c-.369.946-.554 2.009-.554 3.19 0 1.19.185 2.263.555 3.218.37.955.892 1.766 1.57 2.434a6.957 6.957 0 0 0 2.418 1.54c.936.36 1.976.54 3.118.54Zm-2.318-4.399c.49.725 1.262 1.087 2.318 1.087 1.027 0 1.783-.362 2.268-1.087.485-.725.727-1.826.727-3.305 0-1.478-.242-2.577-.727-3.297-.485-.72-1.24-1.08-2.268-1.08-1.056 0-1.829.36-2.318 1.08-.49.72-.735 1.819-.735 3.297 0 1.479.245 2.58.735 3.305Zm17.64 9.31c1.19 0 2.246-.151 3.168-.454.921-.302 1.699-.703 2.332-1.202.634-.5 1.114-1.07 1.44-1.714.327-.643.49-1.3.49-1.973 0-.72-.132-1.312-.396-1.778a3.153 3.153 0 0 0-1.044-1.116 4.549 4.549 0 0 0-1.483-.605 13.32 13.32 0 0 0-1.7-.266 25.97 25.97 0 0 0-1.699-.101 20.362 20.362 0 0 1-1.483-.086c-.432-.044-.78-.12-1.044-.23-.264-.111-.396-.291-.396-.54 0-.25.163-.471.49-.663.413.057.854.086 1.325.086a8.1 8.1 0 0 0 2.376-.338 5.977 5.977 0 0 0 1.922-.965c.542-.418.97-.924 1.282-1.52.312-.594.468-1.266.468-2.015 0-.461-.068-.907-.202-1.34l1.094-.244c.336-.077.574-.187.713-.331.14-.144.209-.341.209-.59v-1.628h-4.507c-.48-.23-1.001-.408-1.563-.533a8.25 8.25 0 0 0-1.792-.187 8.4 8.4 0 0 0-2.434.338c-.749.226-1.4.548-1.951.965a4.572 4.572 0 0 0-1.303 1.527c-.317.6-.476 1.274-.476 2.023 0 .902.224 1.694.67 2.376.446.681 1.058 1.229 1.836 1.641-.346.164-.643.35-.893.562-.25.211-.456.432-.619.662-.163.23-.283.468-.36.713a2.334 2.334 0 0 0-.115.699c0 .528.1.964.302 1.31.202.346.47.629.807.85-.701.259-1.253.616-1.656 1.072-.404.456-.605 1.016-.605 1.678 0 .509.134.998.403 1.469.269.47.684.885 1.246 1.245.561.36 1.267.65 2.116.872.85.22 1.86.33 3.032.33Zm-.944-13.543c.264.1.579.15.944.15.739 0 1.274-.184 1.605-.554.331-.37.497-.847.497-1.432 0-.605-.166-1.08-.497-1.426-.331-.346-.866-.518-1.605-.518-.74 0-1.275.172-1.606.518-.331.346-.497.82-.497 1.426 0 .288.041.552.123.792.081.24.208.448.381.626.173.178.391.317.655.418Zm1.03 10.476c-.595 0-1.087-.036-1.476-.108-.389-.072-.698-.17-.929-.296-.23-.124-.391-.273-.482-.446a1.215 1.215 0 0 1-.137-.576c0-.298.089-.564.266-.8a2.93 2.93 0 0 1 .684-.64c.413.048.83.08 1.253.094.423.014.83.03 1.224.05.394.02.761.048 1.102.086.34.039.638.101.893.188.254.086.456.201.604.345.15.144.224.336.224.576 0 .221-.048.425-.144.612-.096.187-.267.348-.512.483-.244.134-.573.24-.986.316-.413.077-.94.116-1.584.116Zm19.454-2.384c-.931.36-1.963.54-3.096.54-1.142 0-2.181-.18-3.117-.54a6.957 6.957 0 0 1-2.42-1.54c-.676-.668-1.2-1.479-1.569-2.434-.37-.955-.554-2.028-.554-3.218 0-1.181.184-2.244.554-3.19.37-.946.893-1.75 1.57-2.412A6.924 6.924 0 0 1 98.6 14.97c.936-.356 1.975-.533 3.117-.533 1.133 0 2.165.177 3.096.533a6.783 6.783 0 0 1 2.398 1.526 6.87 6.87 0 0 1 1.555 2.412c.37.946.555 2.009.555 3.19 0 1.19-.185 2.263-.555 3.218-.369.955-.888 1.766-1.555 2.434a6.816 6.816 0 0 1-2.398 1.54Zm-3.096-2.772c-1.056 0-1.828-.362-2.318-1.087s-.734-1.826-.734-3.305c0-1.478.244-2.577.734-3.297.49-.72 1.262-1.08 2.318-1.08 1.028 0 1.784.36 2.268 1.08.485.72.728 1.819.728 3.297 0 1.479-.243 2.58-.728 3.305-.484.725-1.24 1.087-2.268 1.087Zm14.66 3.082V14.667h-4.464V29.6h4.464Zm8.064-.994v5.732h-4.464v-19.67h2.764c.279 0 .512.062.699.186.187.125.319.312.396.562l.331 1.094a7.52 7.52 0 0 1 .929-.864 5.906 5.906 0 0 1 2.289-1.109 6.099 6.099 0 0 1 1.433-.158c.778 0 1.498.173 2.16.519a4.973 4.973 0 0 1 1.714 1.497c.48.653.857 1.452 1.13 2.398.274.945.411 2.018.411 3.218 0 1.123-.156 2.16-.468 3.11-.312.951-.749 1.777-1.311 2.477a6.025 6.025 0 0 1-2.016 1.642c-.782.394-1.649.59-2.599.59-.778 0-1.43-.11-1.958-.33a5.317 5.317 0 0 1-1.44-.894Zm2.332-2.059c-.432 0-.844-.074-1.238-.223-.394-.149-.758-.41-1.094-.785v-6.336c.192-.23.384-.434.576-.612.192-.177.4-.324.626-.439.226-.115.47-.204.734-.266.264-.063.56-.094.886-.094.355 0 .677.072.965.216.288.144.535.382.741.713.207.331.368.765.483 1.303.115.538.173 1.2.173 1.987 0 .826-.072 1.527-.216 2.103-.144.576-.344 1.044-.598 1.404-.254.36-.554.621-.9.784a2.633 2.633 0 0 1-1.138.245Zm16.496 2.909c-.783.25-1.683.374-2.7.374a8.222 8.222 0 0 1-1.527-.144 10.558 10.558 0 0 1-1.476-.388 8.034 8.034 0 0 1-1.317-.584 5.688 5.688 0 0 1-1.037-.727l1.037-1.641a1.48 1.48 0 0 1 .446-.454c.173-.11.398-.166.677-.166.259 0 .492.058.698.173l.67.375c.24.134.521.259.842.374.322.115.727.173 1.217.173.346 0 .638-.036.878-.108.24-.072.432-.17.576-.295.144-.125.25-.264.317-.418.067-.154.101-.312.101-.475a.972.972 0 0 0-.302-.735 2.645 2.645 0 0 0-.792-.496 9.736 9.736 0 0 0-1.116-.39c-.418-.12-.843-.256-1.275-.41a10.193 10.193 0 0 1-1.274-.554 4.37 4.37 0 0 1-1.116-.82 3.794 3.794 0 0 1-.792-1.218c-.202-.48-.303-1.06-.303-1.742 0-.634.123-1.236.368-1.807a4.192 4.192 0 0 1 1.101-1.505c.49-.432 1.104-.775 1.843-1.03.74-.254 1.604-.381 2.592-.381.538 0 1.059.048 1.563.144.504.096.977.23 1.418.403a6.79 6.79 0 0 1 1.21.612c.365.235.686.492.965.77l-1.008 1.57a1.16 1.16 0 0 1-.368.389.96.96 0 0 1-.496.115c-.212 0-.423-.046-.634-.137l-.684-.295a7.482 7.482 0 0 0-.828-.295 3.697 3.697 0 0 0-1.051-.137c-.567 0-1.001.108-1.303.324a1.043 1.043 0 0 0-.454.9c0 .278.098.509.295.691.197.183.459.343.785.483.326.139.696.27 1.109.396.413.124.835.264 1.267.417.432.154.854.334 1.267.54.413.207.783.461 1.109.763.326.303.588.67.785 1.102.197.432.295.95.295 1.555 0 .74-.134 1.421-.403 2.045a4.344 4.344 0 0 1-1.203 1.613c-.532.451-1.19.801-1.972 1.051Zm10.807.374c.48 0 .921-.045 1.325-.136.403-.092.78-.216 1.13-.375.35-.158.679-.35.986-.576.308-.225.605-.477.893-.756l.274.864c.173.5.537.749 1.094.749h2.765V14.667h-4.464V25.31a5.112 5.112 0 0 1-1.246.85 3.179 3.179 0 0 1-1.375.302c-.653 0-1.147-.202-1.483-.605-.336-.403-.504-.974-.504-1.714v-9.475h-4.464v9.475c0 .826.11 1.584.331 2.276.221.69.547 1.29.979 1.8a4.46 4.46 0 0 0 1.592 1.188c.628.283 1.351.424 2.167.424Zm16.387-11.03v10.8H166V14.667h2.765c.278 0 .511.063.698.187.187.125.319.312.396.562l.245.806c.25-.259.509-.496.778-.712a4.85 4.85 0 0 1 1.879-.936c.36-.092.756-.137 1.188-.137.902 0 1.649.233 2.239.698.59.466 1.039 1.087 1.346 1.865.25-.46.555-.854.915-1.18a4.92 4.92 0 0 1 1.166-.793c.418-.201.859-.35 1.325-.446a6.871 6.871 0 0 1 1.39-.144c.854 0 1.612.127 2.275.381a4.332 4.332 0 0 1 1.663 1.11c.446.484.785 1.08 1.015 1.785.231.705.346 1.505.346 2.397v9.49h-4.464v-9.49c0-1.545-.663-2.318-1.987-2.318-.605 0-1.107.2-1.505.598-.399.398-.598.972-.598 1.72v9.49h-4.464v-9.49c0-.854-.168-1.454-.504-1.8-.336-.345-.83-.518-1.483-.518a2.5 2.5 0 0 0-1.145.274c-.36.182-.698.427-1.015.734Z" fill="#D8D8D8"/><rect width="37.6" height="37.6" rx="5.6" fill="#D8D8D8"/><path fill-rule="evenodd" clip-rule="evenodd" d="m19.2 26.8-8.934 4.697 1.706-9.948-7.228-7.046 9.989-1.451L19.2 4l4.467 9.052 9.99 1.45-7.229 7.046 1.706 9.95L19.2 26.8Z" fill="#fff"/></svg>