<svg width="45" height="45" fill="none" xmlns="http://www.w3.org/2000/svg"><circle cx="22.5" cy="22.5" r="22.5" fill="#58BEBF" fill-opacity=".2"/><path fill-rule="evenodd" clip-rule="evenodd" d="M19.602 32.796v-4.255h6.273v4.255h4.727V9.878H14.875v22.918h4.727Zm6.273-20.813h2.646v2.675h-2.646v-2.675Zm2.646 3.89h-2.646v2.675h2.646v-2.676Zm-2.646 3.889h2.646v2.674h-2.646v-2.674Zm2.646 3.888h-2.646v2.676h2.646V23.65Zm-7.105-11.666h2.647v2.674h-2.647v-2.675Zm2.647 3.888h-2.647v2.676h2.647v-2.676Zm-2.647 3.89h2.647v2.674h-2.647v-2.674Zm2.647 3.888h-2.647v2.676h2.647V23.65Zm-7.105-11.666h2.645v2.674h-2.645v-2.675Zm2.645 3.888h-2.645v2.676h2.645v-2.676Zm-2.645 3.89h2.645v2.674h-2.645v-2.674Zm2.645 3.888h-2.645v2.676h2.645V23.65Z" fill="#58BEBF"/></svg>