<svg width="20" height="20" fill="none" xmlns="http://www.w3.org/2000/svg"><mask id="mask0_0_28" style="mask-type:luminance" maskUnits="userSpaceOnUse" x="0" y="0" width="20" height="20"><path fill-rule="evenodd" clip-rule="evenodd" d="M.002 0H20v20H.002V0Z" fill="#fff"/></mask><g mask="url('#mask0_0_28')"><path fill-rule="evenodd" clip-rule="evenodd" d="M18.896 0H1.103C.493 0 0 .495 0 1.104v17.793C0 19.507.495 20 1.104 20h17.792c.61 0 1.104-.494 1.104-1.104V1.103C20 .493 19.506 0 18.896 0Z" fill="#4267B2"/></g><path fill-rule="evenodd" clip-rule="evenodd" d="M13.809 20v-7.734h2.607l.39-3.028H13.81V7.31c0-.874.242-1.47 1.496-1.47h1.59v-2.7a21.366 21.366 0 0 0-2.33-.12c-2.304 0-3.881 1.407-3.881 3.99v2.228H8.086v3.028h2.598V20h3.125Z" fill="#fff"/></svg>