<svg width="21" height="20" fill="none" xmlns="http://www.w3.org/2000/svg"><mask id="mask0_0_33" style="mask-type:luminance" maskUnits="userSpaceOnUse" x="0" y="0" width="6" height="20"><path fill-rule="evenodd" clip-rule="evenodd" d="M.035.001H5.07v19.974H.035V.001Z" fill="#fff"/></mask><g mask="url('#mask0_0_33')" fill-rule="evenodd" clip-rule="evenodd" fill="#069"><path d="M.297 19.975h4.48V6.497H.297v13.478ZM2.566 0C1.034 0 .032 1.006.032 2.329c0 1.293.972 2.328 2.475 2.328h.03c1.562 0 2.534-1.035 2.534-2.328C5.042 1.006 4.1 0 2.566 0Z"/></g><path fill-rule="evenodd" clip-rule="evenodd" d="M15.773 6.181c-2.377 0-3.442 1.306-4.038 2.225V6.497h-4.48v13.478h4.48V12.45c0-.403.03-.806.148-1.094.324-.804 1.06-1.638 2.298-1.638 1.621 0 2.27 1.236 2.27 3.048v7.21h4.479v-7.728c0-4.14-2.21-6.066-5.157-6.066Z" fill="#069"/></svg>