<svg width="25" height="20" fill="none" xmlns="http://www.w3.org/2000/svg"><mask id="mask0_0_25" style="mask-type:luminance" maskUnits="userSpaceOnUse" x="0" y="0" width="25" height="20"><path fill-rule="evenodd" clip-rule="evenodd" d="M0 .043h24.46v19.919H0V.043Z" fill="#fff"/></mask><g mask="url('#mask0_0_25')"><path fill-rule="evenodd" clip-rule="evenodd" d="M7.66 19.962c9.249 0 14.307-7.663 14.307-14.307 0-.218-.005-.434-.015-.65A10.226 10.226 0 0 0 24.461 2.4c-.901.4-1.871.67-2.888.792A5.046 5.046 0 0 0 23.784.412c-.971.576-2.047.994-3.193 1.22a5.029 5.029 0 0 0-8.569 4.586A14.276 14.276 0 0 1 1.658.964 5.017 5.017 0 0 0 .977 3.49c0 1.745.888 3.285 2.237 4.186a4.989 4.989 0 0 1-2.277-.629v.064a5.03 5.03 0 0 0 4.034 4.93 5.047 5.047 0 0 1-2.271.086 5.034 5.034 0 0 0 4.697 3.492 10.088 10.088 0 0 1-6.245 2.153c-.406 0-.806-.024-1.2-.07a14.235 14.235 0 0 0 7.708 2.259" fill="#1DA1F2"/></g></svg>