<svg width="30" height="20" fill="none" xmlns="http://www.w3.org/2000/svg"><mask id="mask0_0_39" style="mask-type:luminance" maskUnits="userSpaceOnUse" x="0" y="0" width="30" height="20"><path fill-rule="evenodd" clip-rule="evenodd" d="M.512 0h28.52v19.971H.512V0Z" fill="#fff"/></mask><g mask="url('#mask0_0_39')"><path fill-rule="evenodd" clip-rule="evenodd" d="M28.444 3.125A3.574 3.574 0 0 0 25.931.611C23.698 0 14.77 0 14.77 0S5.842 0 3.61.588a3.647 3.647 0 0 0-2.514 2.537C.508 5.357.508 9.985.508 9.985s0 4.653.588 6.861A3.574 3.574 0 0 0 3.61 19.36c2.255.611 11.16.611 11.16.611s8.928 0 11.16-.587a3.574 3.574 0 0 0 2.515-2.514c.587-2.232.587-6.86.587-6.86s.023-4.653-.588-6.885Z" fill="red"/></g><path fill-rule="evenodd" clip-rule="evenodd" d="m11.927 14.262 7.425-4.276-7.425-4.277v8.553Z" fill="#fff"/></svg>